/* XPM */
static char * top_left_active_xpm[] = {
"3 34 3 1",
" 	c None",
".	c #700000",
"x	c #DEDEDE s active_color_2",
"...",
".xx",
".xx",
".xx",
".xx",
".xx",
".xx",
".xx",
".xx",
".xx",
".xx",
".xx",
".xx",
".xx",
".xx",
".xx",
".xx",
".xx",
".xx",
".xx",
".xx",
".xx",
".xx",
".xx",
".xx",
".xx",
".xx",
".xx",
".xx",
".xx",
".xx",
".xx",
".xx",
".xx"};
